PathFileType	4	(X/Y/Z)	/Users/visionmauri/Downloads/Videos/OAW11-top_Sports2D/OAW11-top_Sports2D_px_person00.trc
DataRate	CameraRate	NumFrames	NumMarkers	Units	OrigDataRate	OrigDataStartFrame	OrigNumFrames
30.0	30.0	8	22	m	30.0	1895	2166
Frame#	Time	Hip			RHip			RKnee			RAnkle			RBigToe			RSmallToe			RHeel			LHip			LKnee			LAnkle			LBigToe			LSmallToe			LHeel			Neck			Head			Nose			RShoulder			RElbow			RWrist			LShoulder			LElbow			LWrist			
		X1	Y1	Z1	X2	Y2	Z2	X3	Y3	Z3	X4	Y4	Z4	X5	Y5	Z5	X6	Y6	Z6	X7	Y7	Z7	X8	Y8	Z8	X9	Y9	Z9	X10	Y10	Z10	X11	Y11	Z11	X12	Y12	Z12	X13	Y13	Z13	X14	Y14	Z14	X15	Y15	Z15	X16	Y16	Z16	X17	Y17	Z17	X18	Y18	Z18	X19	Y19	Z19	X20	Y20	Z20	X21	Y21	Z21	X22	Y22	Z22
1895	63.195842956120096	542.6832301036634	628.6763913898902	0.0	559.780334544316	634.9166430495169	0.0	552.4159185105709	697.2192685381933	0.0	545.6125330729741	753.242133283651	0.0	541.5557027072322	774.8025705678697	0.0	554.1143182157424	775.1876205247353	0.0	545.1370790538211	770.8921992072534	0.0	525.2399807603958	634.2151761696009	0.0	518.9130039717342	694.810402473294	0.0	520.7788283784247	738.3919053927306	0.0	519.4403308256105	779.2584283762958	0.0	506.4927888294359	776.431932327881	0.0	523.6330923039333	753.4126944229013	0.0	543.5497932907152	547.7426109304353	0.0	546.408160996883	529.6258061069052	0.0	557.5137319203076	548.9211364524936	0.0	569.1750956659254	559.7717155441236	0.0	584.1203989416318	606.6923360825673	0.0	598.19484713251	648.7552468677336	0.0	517.0773087955273	554.7830059834203	0.0	503.32968699464016	600.7252552601784	0.0	492.78180740744295	641.1402147340465	0.0
1896	63.22919168591224	543.2032700047545	628.4484938133012	0.0	560.4585245156862	634.4677395485546	0.0	552.4347734324102	696.9543119251504	0.0	545.4379198988073	752.9401712528808	0.0	541.4534843513308	773.9341035675525	0.0	554.1265385003431	775.2363216130577	0.0	545.2220972225738	770.4928416998415	0.0	525.8709305203831	633.9321444580144	0.0	519.3235982775166	694.4513450871541	0.0	520.0808631443496	741.1521147201245	0.0	518.2672606877417	777.1179886306893	0.0	505.93705912327056	774.7710145817571	0.0	522.3510188031983	757.0381134878957	0.0	543.7886053581868	547.186591165803	0.0	546.3540278193603	527.4066274537838	0.0	551.5789599449951	547.8322692548406	0.0	569.4947371443274	558.8826179436736	0.0	584.5831693697023	604.7081161518947	0.0	598.6495699453382	646.5396932430931	0.0	517.3797353143083	554.4688748736179	0.0	504.35800969402555	600.0645583307381	0.0	493.86940708004136	641.2521921742746	0.0
1897	63.262540415704386	543.7120586502352	627.7352862360417	0.0	560.8065655607338	632.9338176073105	0.0	552.5217572123449	696.257350687224	0.0	545.6214155533033	752.4139629934439	0.0	541.0465269235032	773.3338780973573	0.0	553.9565507544089	775.1813104757413	0.0	545.3880398082256	769.42238209052	0.0	526.3612144504542	632.7082072758722	0.0	519.7268837741723	693.974352283044	0.0	519.2132042700902	743.9058465267975	0.0	516.8989932399442	774.1297322900355	0.0	505.54529831930694	772.559119780562	0.0	520.9002756030759	760.1733604302933	0.0	544.0267876323114	546.9174512220095	0.0	546.5396804560802	526.274157510578	0.0	543.6743134814425	547.368684578744	0.0	569.6816297453902	558.602846306232	0.0	585.0043850754178	602.9263332761303	0.0	598.9683278552257	644.4614993250294	0.0	517.5446504010257	554.2149553345233	0.0	504.9818297821216	599.7452566710091	0.0	494.3113387594027	641.6936817710653	0.0
1898	63.29588914549654	543.9558451719478	626.7249798927736	0.0	561.0305514793669	631.1282816934261	0.0	552.5696547411296	695.4474835914198	0.0	546.0041105258496	752.1669707421975	0.0	540.6051043699891	772.8779137368041	0.0	553.6470035117549	774.8788977163554	0.0	545.4318334103888	768.5352627867567	0.0	526.4461416343884	631.0305585258345	0.0	519.9922493347435	693.4107254322917	0.0	518.4279664452883	746.0663884005171	0.0	515.2982031492404	769.7426609141542	0.0	505.2530896542324	769.3983427348494	0.0	519.7272054881018	762.3012386050056	0.0	543.9517812741551	547.0990825796625	0.0	546.3732590559688	526.646430303508	0.0	537.7065333345338	547.1271608582796	0.0	569.4016108528374	558.5512453235528	0.0	585.2839217404976	601.6556656267663	0.0	599.1424278448251	642.6747007574796	0.0	517.4936930827555	554.0040628433877	0.0	505.2531087213566	599.4904432327434	0.0	494.29297495211523	641.8235879175281	0.0
1899	63.32923787528868	543.8396610269424	625.9751132839878	0.0	561.1954359816526	630.3853845204425	0.0	552.4521814417717	694.9410285175654	0.0	546.2092204975257	752.3011508399653	0.0	540.3530898554092	772.4346020367256	0.0	553.184820065853	774.3475055095845	0.0	545.3098534408955	768.4615254478566	0.0	526.1264467984306	630.2270073628376	0.0	520.232293779158	692.8875750600845	0.0	517.8743860081058	747.266366293592	0.0	514.0211065519547	764.6946796041773	0.0	505.2041204198192	765.7744759334621	0.0	519.0460849333074	763.3257886224054	0.0	543.3614647366315	547.4339884092091	0.0	545.2464440098519	527.6885527283833	0.0	534.6984906401516	546.7421630312159	0.0	568.6901067529823	558.1909170418991	0.0	585.3780444886509	600.727765471944	0.0	598.8366654971352	640.9491057562094	0.0	517.1730312185774	553.813259246945	0.0	505.2485360667458	599.2350575115851	0.0	494.08941862636124	641.4715872117489	0.0
1900	63.36258660508083	543.5137128292401	625.4182964222008	0.0	561.0941875590188	630.522787891319	0.0	552.272983663584	694.7801456678328	0.0	546.1343881112472	752.6389885605364	0.0	540.2610727178712	771.9125733516968	0.0	552.8608506071392	773.739061773841	0.0	545.237324834292	768.8516486534425	0.0	525.6967850027567	630.4576837859631	0.0	520.4955766820002	692.5486483503105	0.0	517.4679818609995	747.4914097936928	0.0	513.481508460723	760.0649719143166	0.0	505.5049396664315	762.0058967621343	0.0	518.6942485273235	763.4024857474043	0.0	542.4527765367209	547.4130619344843	0.0	543.5693113937234	528.711930382708	0.0	532.8518860215229	546.4571042546828	0.0	567.8547237901687	557.6120524745601	0.0	585.468378842151	599.8462248149658	0.0	598.1252357759475	639.0756058257169	0.0	516.5979710734434	553.8177192302843	0.0	504.9105665281948	599.1080110831057	0.0	493.6691961571298	641.0359262864655	0.0
1901	63.39593533487298	543.0345616087722	624.8383602733608	0.0	560.6265102687651	630.5941483622031	0.0	552.1488307597423	694.8064431218254	0.0	545.9076058878776	753.1923953959136	0.0	540.4181866942149	771.1658505505737	0.0	553.153284362529	773.2741686547241	0.0	545.2422551945644	769.2276865456523	0.0	525.3195628271332	630.9084840725349	0.0	520.7464902992652	692.4714259225767	0.0	517.0857117745387	746.9734041832841	0.0	513.4132687456771	755.8305107803745	0.0	506.0275084165745	757.9788520730851	0.0	518.3968840228905	762.6812255237304	0.0	541.5243634815008	546.9565089485076	0.0	542.323131096635	529.7639239958054	0.0	531.2656417273249	546.6332996980856	0.0	567.0314998095613	557.2725892201975	0.0	585.5290166161211	599.1429621126659	0.0	597.4100364749435	637.4097653456881	0.0	515.8913531950018	554.1529760626366	0.0	504.305351313975	599.1338236236849	0.0	492.9670473674909	641.0198005300548	0.0
1902	63.429284064665126	542.3271326990917	624.4896525278476	0.0	559.9749964396426	630.479267611035	0.0	552.0014842417983	694.7553630579341	0.0	545.662463103646	753.8110612662614	0.0	540.9650770814505	770.4697290114692	0.0	553.9581369943427	773.2098441578537	0.0	545.1123912796422	769.5334758329501	0.0	524.7704611339824	631.1608948546237	0.0	521.0746032210952	692.4435310694516	0.0	516.7660723640604	745.6582470034905	0.0	513.5599322749313	751.3229737752476	0.0	506.5649550750731	753.923849520936	0.0	518.1990396255685	761.1564568060883	0.0	540.5527795743374	546.2431514487732	0.0	541.6174172698104	530.944770817803	0.0	530.1780047988569	546.9925402643437	0.0	566.1232007043491	557.2861908835721	0.0	585.1982837166169	598.9824536403037	0.0	596.6221504952119	636.4881726821073	0.0	515.1542750587049	554.5861440238023	0.0	503.67863184671324	599.1321494861194	0.0	492.197299878891	641.3881673479485	0.0
